/* XPM */
static char *coinx1670477037[] = {
/* columns rows colors chars-per-pixel */
"30 30 9 1 ",
"  c #5D6F00",
". c #8EA800",
"X c #94AF00",
"o c #D6FB00",
"O c #D7FD00",
"+ c #D9FF00",
"@ c #DEFF00",
"# c #E0FF00",
"$ c #E7FF00",
/* pixels */
" X...X......X....X......X...X ",
"X$@###############@@####@###$X",
".@o+OOOOOOOOOOOOOOOO+OOOOOOo@.",
"X@O+++++++++++++++++++++++OO#.",
".@O++++++++++++++++++++++++O#.",
".@O++++++++++++++++++++++++O#.",
".#O++++++++++++++++++++++++O#.",
".#O++++++++++++++++++++++++O#X",
".#O+++++++++++++++++++++++++$.",
".#O++++++++++++++++++++++++o#.",
".$O++++++++++++++++++++++++o#.",
".#O++++++++++++++++++++++++o@X",
"X@OO+++++++++++++++++++++++o#.",
".@O++++++++++++++++++++++++O#.",
".#O++++++++++++++++++++++++O#.",
".#O++++++++++++++++++++++++O#.",
"X#O++++++++++++++++++++++++O#.",
".#O++++++++++++++++++++++++O#.",
".#O++++++++++++++++++++++++O#X",
".#O++++++++++++++++++++++++O#.",
".#O++++++++++++++++++++++++O#.",
".#O++++++++++++++++++++++++O#.",
".#O+++++++++++++++++++++++OO#X",
"X#O++++++++++++++++++++++++O#.",
".#OO+++++++++++++++++++++++O#.",
".#o@+++++++++++++++++++++++O#.",
".#+++++++++++++++++++++@+++O#.",
".@ooOOOOOOOOOOO+OOOOOOOOOOOo@.",
"X$@@@#####################@@$X",
" X.X....X..........X....X...X "
};
