/* XPM */
static char *_f57a5db064f4f8eb4adfd8eea40872bwzf0IVkmw5AkXep0[] = {
/* columns rows colors chars-per-pixel */
"100 100 2 1 ",
"  c black",
". c #0400FF",
/* pixels */
"                                                                                                    ",
"                                                                                                    ",
"  ................................................................................................  ",
"  ................................................................................................  ",
"  ................................................................................................  ",
"  ................................................................................................  ",
"  ................................................................................................  ",
"  ................................................................................................  ",
"  ................................................................................................  ",
"  ................................................................................................  ",
"  ................................................................................................  ",
"  ................................................................................................  ",
"  ................................................................................................  ",
"  ................................................................................................  ",
"  ................................................................................................  ",
"  ................................................................................................  ",
"  ................................................................................................  ",
"  ................................................................................................  ",
"  ................................................................................................  ",
"  ................................................................................................  ",
"  ................................................................................................  ",
"  ................................................................................................  ",
"  ................................................................................................  ",
"  ................................................................................................  ",
"  ................................................................................................  ",
"  ................................................................................................  ",
"  ................................................................................................  ",
"  ................................................................................................  ",
"  ................................................................................................  ",
"  ................................................................................................  ",
"  ................................................................................................  ",
"  ................................................................................................  ",
"  ................................................................................................  ",
"  ................................................................................................  ",
"  ................................................................................................  ",
"  ................................................................................................  ",
"  ................................................................................................  ",
"  ................................................................................................  ",
"  ................................................................................................  ",
"  ................................................................................................  ",
"  ................................................................................................  ",
"  ................................................................................................  ",
"  ................................................................................................  ",
"  ................................................................................................  ",
"  ................................................................................................  ",
"  ................................................................................................  ",
"  ................................................................................................  ",
"  ................................................................................................  ",
"  ................................................................................................  ",
"  ................................................................................................  ",
"  ................................................................................................  ",
"  ................................................................................................  ",
"  ................................................................................................  ",
"  ................................................................................................  ",
"  ................................................................................................  ",
"  ................................................................................................  ",
"  ................................................................................................  ",
"  ................................................................................................  ",
"  ................................................................................................  ",
"  ................................................................................................  ",
"  ................................................................................................  ",
"  ................................................................................................  ",
"  ................................................................................................  ",
"  ................................................................................................  ",
"  ................................................................................................  ",
"  ................................................................................................  ",
"  ................................................................................................  ",
"  ................................................................................................  ",
"  ................................................................................................  ",
"  ................................................................................................  ",
"  ................................................................................................  ",
"  ................................................................................................  ",
"  ................................................................................................  ",
"  ................................................................................................  ",
"  ................................................................................................  ",
"  ................................................................................................  ",
"  ................................................................................................  ",
"  ................................................................................................  ",
"  ................................................................................................  ",
"  ................................................................................................  ",
"  ................................................................................................  ",
"  ................................................................................................  ",
"  ................................................................................................  ",
"  ................................................................................................  ",
"  ................................................................................................  ",
"  ................................................................................................  ",
"  ................................................................................................  ",
"  ................................................................................................  ",
"  ................................................................................................  ",
"  ................................................................................................  ",
"  ................................................................................................  ",
"  ................................................................................................  ",
"  ................................................................................................  ",
"  ................................................................................................  ",
"  ................................................................................................  ",
"  ................................................................................................  ",
"  ................................................................................................  ",
"  ................................................................................................  ",
"                                                                                                    ",
"                                                                                                    "
};
