/* XPM */
static char *goalx1670477036[] = {
/* columns rows colors chars-per-pixel */
"30 30 6 1 ",
"  c #01006F",
". c #0200A8",
"X c #0200AF",
"o c #0400FB",
"O c #0400FF",
"+ c #0500FF",
/* pixels */
" X..........................X ",
"X+++OOOOOOOOOOOOOOOOOOOOOOOO+X",
".OoOoOOoOOoOOoOOOooOOOoOOoOoO.",
".OOOOOOOOOOOOOOOOOOOOOOOOOOOO.",
".OOOOOOOOOOOOOOOOOOOOOOOOOOOO.",
".OoOOOOOOOOOOOOOOOOOOOOOOOOoO.",
".OOOOOOOOOOOOOOOOOOOOOOOOOOOO.",
".OOOOOOOOOOOOOOOOOOOOOOOOOOoO.",
".OoOOOOOOOOOOOOOOOOOOOOOOOOoO.",
".OOOOOOOOOOOOOOOOOOOOOOOOOOOO.",
".OOOOOOOOOOOOOOOOOOOOOOOOOOOO.",
".OoOOOOOOOOOOOOOOOOOOOOOOOOOO.",
".OOOOOOOOOOOOOOOOOOOOOOOOOOOO.",
".OOOOOOOOOOOOOOOOOOOOOOOOOOoO.",
".OoOOOOOOOOOOOOOOOOOOOOOOOOOO.",
".OOOOOOOOOOOOOOOOOOOOOOOOOOoO.",
".OOOOOOOOOOOOOOOOOOOOOOOOOOoO.",
".OoOOOOOOOOOOOOOOOOOOOOOOOOOO.",
".OOOOOOOOOOOOOOOOOOOOOOOOOOoO.",
".OOOOOOOOOOOOOOOOOOOOOOOOOOOO.",
".OoOOOOOOOOOOOOOOOOOOOOOOOOoO.",
".OOOOOOOOOOOOOOOOOOOOOOOOOOOO.",
".OOOOOOOOOOOOOOOOOOOOOOOOOOOO.",
".OoOOOOOOOOOOOOOOOOOOOOOOOOOO.",
".OOOOOOOOOOOOOOOOOOOOOOOOOOoO.",
".OOOOOOOOOOOOOOOOOOOOOOOOOOOO.",
".OoOOOOOOOOOOOOOOOOOOOOOOOOoO.",
".OoOOoOOOoOoOoOOOoOoOoOOOoOoO.",
"X+OOOOOOOOOOOOOOOOOOOOOOOOOO+X",
" X..........................X "
};
