/* XPM */
static char *groundx1670477037[] = {
/* columns rows colors chars-per-pixel */
"30 30 6 1 ",
"  c #006F03",
". c #00A807",
"X c #00AF08",
"o c #00FB11",
"O c #00FF11",
"+ c #00FF13",
/* pixels */
" X..........................X ",
"X+++O++OO+O++OO+O++OO+O++OO++X",
".Oo+oOOoOOoOOoOOOooOOOoOOoOoO.",
".+++OOOOOOOOOOOOOOOOOOOOOOOO+.",
".+OOOOOOOOOOOOOOOOOOOOOOOOOO+.",
".OoOOOOOOOOOOOOOOOOOOOOOOOOoO.",
".OOOOOOOOOOOOOOOOOOOOOOOOOOO+.",
".+OOOOOOOOOOOOOOOOOOOOOOOOOoO.",
".OoOOOOOOOOOOOOOOOOOOOOOOOOo+.",
".+OOOOOOOOOOOOOOOOOOOOOOOOOOO.",
".+OOOOOOOOOOOOOOOOOOOOOOOOOO+.",
".OoOOOOOOOOOOOOOOOOOOOOOOOOOO.",
".OOOOOOOOOOOOOOOOOOOOOOOOOOOO.",
".+OOOOOOOOOOOOOOOOOOOOOOOOOo+.",
".OoOOOOOOOOOOOOOOOOOOOOOOOOOO.",
".+OOOOOOOOOOOOOOOOOOOOOOOOOo+.",
".+OOOOOOOOOOOOOOOOOOOOOOOOOo+.",
".OoOOOOOOOOOOOOOOOOOOOOOOOOOO.",
".OOOOOOOOOOOOOOOOOOOOOOOOOOo+.",
".+OOOOOOOOOOOOOOOOOOOOOOOOOOO.",
".OoOOOOOOOOOOOOOOOOOOOOOOOOo+.",
".+OOOOOOOOOOOOOOOOOOOOOOOOOOO.",
".+OOOOOOOOOOOOOOOOOOOOOOOOOO+.",
".OoOOOOOOOOOOOOOOOOOOOOOOOOOO.",
".OOOOOOOOOOOOOOOOOOOOOOOOOOoO.",
".+OOOOOOOOOOOOOOOOOOOOOOOOOO+.",
".OoOOOOOOOOOOOOOOOOOOOOOOOOoO.",
".+oOOoOOOoOoOoOOOoOoOoOOOoOo+.",
"X++O+O+O+O+O+O+O+O+O+O+O+O+O+X",
" X..........................X "
};
