/* XPM */
static char *scannedx1670477037[] = {
/* columns rows colors chars-per-pixel */
"30 30 10 1 ",
"  c #003C02",
". c #015E04",
"X c #016105",
"o c #016205",
"O c #028F0B",
"+ c #02900B",
"@ c #02910B",
"# c #02950C",
"$ c #02960C",
"% c #029B0D",
/* pixels */
" X..X..X...........X.....X..X ",
"X%$$$$$$#$$$$$$$############$X",
".$O++++OO+++++#OO@@O@@@O@O@@#.",
".$+++++$OO+$+++O@@@@@@@@@@@@#.",
".$+++$++++++++#+@@@@@@@@@@@@#.",
".$+++O+O+#++++++@@@@@@@@@@@O#.",
".$O++O+$+#+##++#@@@@@@@@@@@@#.",
".$+++$++++++++++@@@@@@@@@@@O#X",
".#@@@@@@++@@@@@@@@@@@@@@@@@@#.",
".#O@@@@@@#@@@@@@@@@@@@@@@@@O#.",
".#@@@@@@@@@@@@@@@@@@@@@@@@@@#X",
"X#@@@@@@@@@@@@@@@@@@@@@@@@@@#.",
".#@@@@@@@@@@@@@@@@@@@@@@@@@O#X",
".#@@@@@@@@@@@@@@@@@@@@@@@@@@#.",
".#@@@@@@@@@@@@@@@@@@@@@@@@@O#.",
".#O@@@@@@@@@@@@@@@@@@@@@@@@@#.",
".#@@@@@@@@@@@@@@@@@@@@@@@@@@#.",
"X#@@@@@@@@@@@@@@@@@@@@@@@@@O#.",
".#@@@@@@@@@@@@@@@@@@@@@@@@@@#.",
".#@@@@@@@@@@@@@@@@@@@@@@@@@O#X",
".#@@@@@@@@@@@@@@@@@@@@@@@@@@#.",
".#O@@@@@@@@@@@@@@@@@@@@@@@@@#.",
".#O@@@@@@@@@@@@@@@@@@@@@@@++#X",
"X#@@@@@@@@@@@@@@@@@@@@@@@#++#.",
".#@@@@@@@@@@@@@@@@@@@@@@@@@@#X",
".#@@@@@@@@@@@@@@@@@@@@@@@@@O#.",
".#@@+#++@@@@@@@@@@@@@@@@@@@@#X",
".#OO++++O@@@@@@@O@O@O@@@O@OO#o",
"X####$######################$o",
" X.XXX.......X......XX......o "
};
