/* XPM */
static char *_877a07e2be546c1b7b3706861d3758akDE8GuAiQsOz8smM[] = {
/* columns rows colors chars-per-pixel */
"100 100 3 1 ",
"  c black",
". c #02910B",
"X c #00FF11",
/* pixels */
"                                                                                                    ",
"                                                                                                    ",
"  ..XXXXXXXXXXXXXXXXXXXXXXXXXXXXXXXXXXXXXXXXXXXX....XXXXXXXXXXXXXXXXXXXXXXXXXXXXXXXXXXXXXXXXXXXX..  ",
"  ...XXXXXXXXXXXXXXXXXXXXXXXXXXXXXXXXXXXXXXXXXX......XXXXXXXXXXXXXXXXXXXXXXXXXXXXXXXXXXXXXXXXXX...  ",
"  X...XXXXXXXXXXXXXXXXXXXXXXXXXXXXXXXXXXXXXXXX...XX...XXXXXXXXXXXXXXXXXXXXXXXXXXXXXXXXXXXXXXXX...X  ",
"  XX...XXXXXXXXXXXXXXXXXXXXXXXXXXXXXXXXXXXXXX...XXXX...XXXXXXXXXXXXXXXXXXXXXXXXXXXXXXXXXXXXXX...XX  ",
"  XXX...XXXXXXXXXXXXXXXXXXXXXXXXXXXXXXXXXXXX...XXXXXX...XXXXXXXXXXXXXXXXXXXXXXXXXXXXXXXXXXXX...XXX  ",
"  XXXX...XXXXXXXXXXXXXXXXXXXXXXXXXXXXXXXXXX...XXXXXXXX...XXXXXXXXXXXXXXXXXXXXXXXXXXXXXXXXXX...XXXX  ",
"  XXXXX...XXXXXXXXXXXXXXXXXXXXXXXXXXXXXXXX...XXXXXXXXXX...XXXXXXXXXXXXXXXXXXXXXXXXXXXXXXXX...XXXXX  ",
"  XXXXXX...XXXXXXXXXXXXXXXXXXXXXXXXXXXXXX...XXXXXXXXXXXX...XXXXXXXXXXXXXXXXXXXXXXXXXXXXXX...XXXXXX  ",
"  XXXXXXX...XXXXXXXXXXXXXXXXXXXXXXXXXXXX...XXXXXXXXXXXXXX...XXXXXXXXXXXXXXXXXXXXXXXXXXXX...XXXXXXX  ",
"  XXXXXXXX...XXXXXXXXXXXXXXXXXXXXXXXXXX...XXXXXXXXXXXXXXXX...XXXXXXXXXXXXXXXXXXXXXXXXXX...XXXXXXXX  ",
"  XXXXXXXXX...XXXXXXXXXXXXXXXXXXXXXXXX...XXXXXXXXXXXXXXXXXX...XXXXXXXXXXXXXXXXXXXXXXXX...XXXXXXXXX  ",
"  XXXXXXXXXX...XXXXXXXXXXXXXXXXXXXXXX...XXXXXXXXX  XXXXXXXXX...XXXXXXXXXXXXXXXXXXXXXX...XXXXXXXXXX  ",
"  XXXXXXXXXXX...XXXXXXXXXXXXXXXXXXXX...XXXXXXXXX    XXXXXXXXX...XXXXXXXXXXXXXXXXXXXX...XXXXXXXXXXX  ",
"  XXXXXXXXXXXX...XXXXXXXXXXXXXXXXXX...XXXXXXXXX  XX  XXXXXXXXX...XXXXXXXXXXXXXXXXXX...XXXXXXXXXXXX  ",
"  XXXXXXXXXXXXX...XXXXXXXXXXXXXXXX...XXXXXXXXX  XXXX  XXXXXXXXX...XXXXXXXXXXXXXXXX...XXXXXXXXXXXXX  ",
"  XXXXXXXXXXXXXX...XXXXXXXXXXXXXX...XXXXXXXXX  XXXXXX  XXXXXXXXX...XXXXXXXXXXXXXX...XXXXXXXXXXXXXX  ",
"  XXXXXXXXXXXXXXX...XXXXXXXXXXXX...XXXXXXXXX  XXXXXXXX  XXXXXXXXX...XXXXXXXXXXXX...XXXXXXXXXXXXXXX  ",
"  XXXXXXXXXXXXXXXX...XXXXXXXXXX...XXXXXXXXX  XXXXXXXXXX  XXXXXXXXX...XXXXXXXXXX...XXXXXXXXXXXXXXXX  ",
"  XXXXXXXXXXXXXXXXX...XXXXXXXX...XXXXXXXXX  XXXXXXXXXXXX  XXXXXXXXX...XXXXXXXX...XXXXXXXXXXXXXXXXX  ",
"  XXXXXXXXXXXXXXXXXX...XXXXXX...XXXXXXXXX  XXXXXXXXXXXXXX  XXXXXXXXX...XXXXXX...XXXXXXXXXXXXXXXXXX  ",
"  XXXXXXXXXXXXXXXXXXX...XXXX...XXXXXXXXX  XXXXXXXXXXXXXXXX  XXXXXXXXX...XXXX...XXXXXXXXXXXXXXXXXXX  ",
"  XXXXXXXXXXXXXXXXXXXX...XX...XXXXXXXXX  XXXXXXXXXXXXXXXXXX  XXXXXXXXX...XX...XXXXXXXXXXXXXXXXXXXX  ",
"  XXXXXXXXXXXXXXXXXXXXX......XXXXXXXXXXXXXXXXXXXXXXXXXXXXXXXXXXXXXXXXXX......XXXXXXXXXXXXXXXXXXXXX  ",
"  XXXXXXXXXXXXXXXXXXXXXX....XXXXXXXXXXXXXXXXXXXXXXXXXXXXXXXXXXXXXXXXXXXX....XXXXXXXXXXXXXXXXXXXXXX  ",
"  XXXXXXXXXXXXXXXXXXXXXX...XXXXXXXXXXXXXXXXXXXXXXXXXXXXXXXXXXXXXXXXXXXXXX...XXXXXXXXXXXXXXXXXXXXXX  ",
"  XXXXXXXXXXXXXXXXXXXXX...XXXXXXXXXXXXXXXXXXXXXXXXXXXXXXXXXXXXXXXXXXXXXXXX...XXXXXXXXXXXXXXXXXXXXX  ",
"  XXXXXXXXXXXXXXXXXXXX...XXXXXXXXXXXXXXXXXXXXXXXXXXXXXXXXXXXXXXXXXXXXXXXXXX...XXXXXXXXXXXXXXXXXXXX  ",
"  XXXXXXXXXXXXXXXXXXX...XXXXXXXXXXXXXXXXXXXXXXXXXXXXXXXXXXXXXXXXXXXXXXXXXXXX...XXXXXXXXXXXXXXXXXXX  ",
"  XXXXXXXXXXXXXXXXXX...XXXXXXXXXXXXXXXXXXXXXXXXXXXXXXXXXXXXXXXXXXXXXXXXXXXXXX...XXXXXXXXXXXXXXXXXX  ",
"  XXXXXXXXXXXXXXXXX...XXXXXXXXXXXXXXXXXXXXXXXXXXXXXXXXXXXXXXXXXXXXXXXXXXXXXXXX...XXXXXXXXXXXXXXXXX  ",
"  XXXXXXXXXXXXXXXX...XXXXXXXXXXXXXXXXXXXXXXXXXXXXXXXXXXXXXXXXXXXXXXXXXXXXXXXXXX...XXXXXXXXXXXXXXXX  ",
"  XXXXXXXXXXXXXXX...XXXXXXXXXXXXXXXXXXXXXXXXXXXXXXXXXXXXXXXXXXXXXXXXXXXXXXXXXXXX...XXXXXXXXXXXXXXX  ",
"  XXXXXXXXXXXXXX...XXXXXXXXXXXXXXXXXXXXXXXXXXXXXXXXXXXXXXXXXXXXXXXXXXXXXXXXXXXXXX...XXXXXXXXXXXXXX  ",
"  XXXXXXXXXXXXX...XXXXXXXXXXXXXXXXXXXXXXXXXXXXXXXXXXXXXXXXXXXXXXXXXXXXXXXXXXXXXXXX...XXXXXXXXXXXXX  ",
"  XXXXXXXXXXXX...XXXXXXXXXXXXXXXXXXXXXXXXXXXXXXXXXXXXXXXXXXXXXXXXXXXXXXXXXXXXXXXXXX...XXXXXXXXXXXX  ",
"  XXXXXXXXXXX...XXXXXXXXXXXXXXXXXXXXXXXXXXXXXXXXXXXXXXXXXXXXXXXXXXXXXXXXXXXXXXXXXXXX...XXXXXXXXXXX  ",
"  XXXXXXXXXX...XXXXXXXXXXXXXXXXXXXXXXXXXXXXXXXXXXXXXXXXXXXXXXXXXXXXXXXXXXXXXXXXXXXXXX...XXXXXXXXXX  ",
"  XXXXXXXXX...XXXXXXXXX XXXXXXXXXXXXXXXXXXXXXXXXXXXXXXXXXXXXXXXXXXXXXXXXXXXX XXXXXXXXX...XXXXXXXXX  ",
"  XXXXXXXX...XXXXXXXXX  XXXXXXXXXXXXXXXXXXXXXXXXXXXXXXXXXXXXXXXXXXXXXXXXXXXX  XXXXXXXXX...XXXXXXXX  ",
"  XXXXXXX...XXXXXXXXX  XXXXXXXXXXXXXXXXXXXXXXXXXXXXXXXXXXXXXXXXXXXXXXXXXXXXXX  XXXXXXXXX...XXXXXXX  ",
"  XXXXXX...XXXXXXXXX  XXXXXXXXXXXXXXXXXXXXXXXXXXXXXXXXXXXXXXXXXXXXXXXXXXXXXXXX  XXXXXXXXX...XXXXXX  ",
"  XXXXX...XXXXXXXXX  XXXXXXXXXXXXXXXXXXXXXXXXXXXXXXXXXXXXXXXXXXXXXXXXXXXXXXXXXX  XXXXXXXXX...XXXXX  ",
"  XXXX...XXXXXXXXX  XXXXXXXXXXXXXXXXXXXXXXXXXXXXXXXXXXXXXXXXXXXXXXXXXXXXXXXXXXXX  XXXXXXXXX...XXXX  ",
"  XXX...XXXXXXXXX  XXXXXXXXXXXXXXXXXXXXXXXXXXXXXXXXXXXXXXXXXXXXXXXXXXXXXXXXXXXXXX  XXXXXXXXX...XXX  ",
"  XX...XXXXXXXXX  XXXXXXXXXXXXXXXXXXXXXXXXXXXXXXXXXXXXXXXXXXXXXXXXXXXXXXXXXXXXXXXX  XXXXXXXXX...XX  ",
"  X...XXXXXXXXX  XXXXXXXXXXXXXXXX XXXXX  XXX  XX XX X   X XX XX  XXXXXXXXXXXXXXXXXX  XXXXXXXXX...X  ",
"  ...XXXXXXXXX  XXXXXXXXXXXXXXXXX XXXX XX X XX X X XXX XX  X X XXXXXXXXXXXXXXXXXXXXX  XXXXXXXXX...  ",
"  ..XXXXXXXXX  XXXXXXXXXXXXXXXXXX XXXX XX X XX X  XXXX XX X  X X  XXXXXXXXXXXXXXXXXXX  XXXXXXXXX..  ",
"  ..XXXXXXXXX  XXXXXXXXXXXXXXXXXX XXXX XX X XX X X XXX XX XX X XX XXXXXXXXXXXXXXXXXXX  XXXXXXXXX..  ",
"  ...XXXXXXXXX  XXXXXXXXXXXXXXXXX    XX  XXX  XX XX X   X XX XX  XXXXXXXXXXXXXXXXXXX  XXXXXXXXX...  ",
"  X...XXXXXXXXX  XXXXXXXXXXXXXXXXXXXXXXXXXXXXXXXXXXXXXXXXXXXXXXXXXXXXXXXXXXXXXXXXXX  XXXXXXXXX...X  ",
"  XX...XXXXXXXXX  XXXXXXXXXXXXXXXXXXXXXXXXXXXXXXXXXXXXXXXXXXXXXXXXXXXXXXXXXXXXXXXX  XXXXXXXXX...XX  ",
"  XXX...XXXXXXXXX  XXXXXXXXXXXXXXXXXXXXXXXXXXXXXXXXXXXXXXXXXXXXXXXXXXXXXXXXXXXXXX  XXXXXXXXX...XXX  ",
"  XXXX...XXXXXXXXX  XXXXXXXXXXXXXXXXXXXXXXXXXXXXXXXXXXXXXXXXXXXXXXXXXXXXXXXXXXXX  XXXXXXXXX...XXXX  ",
"  XXXXX...XXXXXXXXX  XXXXXXXXXXXXXXXXXXXXXXXXXXXXXXXXXXXXXXXXXXXXXXXXXXXXXXXXXX  XXXXXXXXX...XXXXX  ",
"  XXXXXX...XXXXXXXXX  XXXXXXXXXXXXXXXXXXXXXXXXXXXXXXXXXXXXXXXXXXXXXXXXXXXXXXXX  XXXXXXXXX...XXXXXX  ",
"  XXXXXXX...XXXXXXXXX  XXXXXXXXXXXXXXXXXXXXXXXXXXXXXXXXXXXXXXXXXXXXXXXXXXXXXX  XXXXXXXXX...XXXXXXX  ",
"  XXXXXXXX...XXXXXXXXX  XXXXXXXXXXXXXXXXXXXXXXXXXXXXXXXXXXXXXXXXXXXXXXXXXXXX  XXXXXXXXX...XXXXXXXX  ",
"  XXXXXXXXX...XXXXXXXXX XXXXXXXXXXXXXXXXXXXXXXXXXXXXXXXXXXXXXXXXXXXXXXXXXXXX XXXXXXXXX...XXXXXXXXX  ",
"  XXXXXXXXXX...XXXXXXXXXXXXXXXXXXXXXXXXXXXXXXXXXXXXXXXXXXXXXXXXXXXXXXXXXXXXXXXXXXXXXX...XXXXXXXXXX  ",
"  XXXXXXXXXXX...XXXXXXXXXXXXXXXXXXXXXXXXXXXXXXXXXXXXXXXXXXXXXXXXXXXXXXXXXXXXXXXXXXXX...XXXXXXXXXXX  ",
"  XXXXXXXXXXXX...XXXXXXXXXXXXXXXXXXXXXXXXXXXXXXXXXXXXXXXXXXXXXXXXXXXXXXXXXXXXXXXXXX...XXXXXXXXXXXX  ",
"  XXXXXXXXXXXXX...XXXXXXXXXXXXXXXXXXXXXXXXXXXXXXXXXXXXXXXXXXXXXXXXXXXXXXXXXXXXXXXX...XXXXXXXXXXXXX  ",
"  XXXXXXXXXXXXXX...XXXXXXXXXXXXXXXXXXXXXXXXXXXXXXXXXXXXXXXXXXXXXXXXXXXXXXXXXXXXXX...XXXXXXXXXXXXXX  ",
"  XXXXXXXXXXXXXXX...XXXXXXXXXXXXXXXXXXXXXXXXXXXXXXXXXXXXXXXXXXXXXXXXXXXXXXXXXXXX...XXXXXXXXXXXXXXX  ",
"  XXXXXXXXXXXXXXXX...XXXXXXXXXXXXXXXXXXXXXXXXXXXXXXXXXXXXXXXXXXXXXXXXXXXXXXXXXX...XXXXXXXXXXXXXXXX  ",
"  XXXXXXXXXXXXXXXXX...XXXXXXXXXXXXXXXXXXXXXXXXXXXXXXXXXXXXXXXXXXXXXXXXXXXXXXXX...XXXXXXXXXXXXXXXXX  ",
"  XXXXXXXXXXXXXXXXXX...XXXXXXXXXXXXXXXXXXXXXXXXXXXXXXXXXXXXXXXXXXXXXXXXXXXXXX...XXXXXXXXXXXXXXXXXX  ",
"  XXXXXXXXXXXXXXXXXXX...XXXXXXXXXXXXXXXXXXXXXXXXXXXXXXXXXXXXXXXXXXXXXXXXXXXX...XXXXXXXXXXXXXXXXXXX  ",
"  XXXXXXXXXXXXXXXXXXXX...XXXXXXXXXXXXXXXXXXXXXXXXXXXXXXXXXXXXXXXXXXXXXXXXXX...XXXXXXXXXXXXXXXXXXXX  ",
"  XXXXXXXXXXXXXXXXXXXXX...XXXXXXXXXXXXXXXXXXXXXXXXXXXXXXXXXXXXXXXXXXXXXXXX...XXXXXXXXXXXXXXXXXXXXX  ",
"  XXXXXXXXXXXXXXXXXXXXXX...XXXXXXXXXXXXXXXXXXXXXXXXXXXXXXXXXXXXXXXXXXXXXX...XXXXXXXXXXXXXXXXXXXXXX  ",
"  XXXXXXXXXXXXXXXXXXXXXX....XXXXXXXXXXXXXXXXXXXXXXXXXXXXXXXXXXXXXXXXXXXX....XXXXXXXXXXXXXXXXXXXXXX  ",
"  XXXXXXXXXXXXXXXXXXXXX......XXXXXXXXXXXXXXXXXXXXXXXXXXXXXXXXXXXXXXXXXX......XXXXXXXXXXXXXXXXXXXXX  ",
"  XXXXXXXXXXXXXXXXXXXX...XX...XXXXXXXXX  XXXXXXXXXXXXXXXXXX  XXXXXXXXX...XX...XXXXXXXXXXXXXXXXXXXX  ",
"  XXXXXXXXXXXXXXXXXXX...XXXX...XXXXXXXXX  XXXXXXXXXXXXXXXX  XXXXXXXXX...XXXX...XXXXXXXXXXXXXXXXXXX  ",
"  XXXXXXXXXXXXXXXXXX...XXXXXX...XXXXXXXXX  XXXXXXXXXXXXXX  XXXXXXXXX...XXXXXX...XXXXXXXXXXXXXXXXXX  ",
"  XXXXXXXXXXXXXXXXX...XXXXXXXX...XXXXXXXXX  XXXXXXXXXXXX  XXXXXXXXX...XXXXXXXX...XXXXXXXXXXXXXXXXX  ",
"  XXXXXXXXXXXXXXXX...XXXXXXXXXX...XXXXXXXXX  XXXXXXXXXX  XXXXXXXXX...XXXXXXXXXX...XXXXXXXXXXXXXXXX  ",
"  XXXXXXXXXXXXXXX...XXXXXXXXXXXX...XXXXXXXXX  XXXXXXXX  XXXXXXXXX...XXXXXXXXXXXX...XXXXXXXXXXXXXXX  ",
"  XXXXXXXXXXXXXX...XXXXXXXXXXXXXX...XXXXXXXXX  XXXXXX  XXXXXXXXX...XXXXXXXXXXXXXX...XXXXXXXXXXXXXX  ",
"  XXXXXXXXXXXXX...XXXXXXXXXXXXXXXX...XXXXXXXXX  XXXX  XXXXXXXXX...XXXXXXXXXXXXXXXX...XXXXXXXXXXXXX  ",
"  XXXXXXXXXXXX...XXXXXXXXXXXXXXXXXX...XXXXXXXXX  XX  XXXXXXXXX...XXXXXXXXXXXXXXXXXX...XXXXXXXXXXXX  ",
"  XXXXXXXXXXX...XXXXXXXXXXXXXXXXXXXX...XXXXXXXXX    XXXXXXXXX...XXXXXXXXXXXXXXXXXXXX...XXXXXXXXXXX  ",
"  XXXXXXXXXX...XXXXXXXXXXXXXXXXXXXXXX...XXXXXXXXX  XXXXXXXXX...XXXXXXXXXXXXXXXXXXXXXX...XXXXXXXXXX  ",
"  XXXXXXXXX...XXXXXXXXXXXXXXXXXXXXXXXX...XXXXXXXXXXXXXXXXXX...XXXXXXXXXXXXXXXXXXXXXXXX...XXXXXXXXX  ",
"  XXXXXXXX...XXXXXXXXXXXXXXXXXXXXXXXXXX...XXXXXXXXXXXXXXXX...XXXXXXXXXXXXXXXXXXXXXXXXXX...XXXXXXXX  ",
"  XXXXXXX...XXXXXXXXXXXXXXXXXXXXXXXXXXXX...XXXXXXXXXXXXXX...XXXXXXXXXXXXXXXXXXXXXXXXXXXX...XXXXXXX  ",
"  XXXXXX...XXXXXXXXXXXXXXXXXXXXXXXXXXXXXX...XXXXXXXXXXXX...XXXXXXXXXXXXXXXXXXXXXXXXXXXXXX...XXXXXX  ",
"  XXXXX...XXXXXXXXXXXXXXXXXXXXXXXXXXXXXXXX...XXXXXXXXXX...XXXXXXXXXXXXXXXXXXXXXXXXXXXXXXXX...XXXXX  ",
"  XXXX...XXXXXXXXXXXXXXXXXXXXXXXXXXXXXXXXXX...XXXXXXXX...XXXXXXXXXXXXXXXXXXXXXXXXXXXXXXXXXX...XXXX  ",
"  XXX...XXXXXXXXXXXXXXXXXXXXXXXXXXXXXXXXXXXX...XXXXXX...XXXXXXXXXXXXXXXXXXXXXXXXXXXXXXXXXXXX...XXX  ",
"  XX...XXXXXXXXXXXXXXXXXXXXXXXXXXXXXXXXXXXXXX...XXXX...XXXXXXXXXXXXXXXXXXXXXXXXXXXXXXXXXXXXXX...XX  ",
"  X...XXXXXXXXXXXXXXXXXXXXXXXXXXXXXXXXXXXXXXXX...XX...XXXXXXXXXXXXXXXXXXXXXXXXXXXXXXXXXXXXXXXX...X  ",
"  ...XXXXXXXXXXXXXXXXXXXXXXXXXXXXXXXXXXXXXXXXXX......XXXXXXXXXXXXXXXXXXXXXXXXXXXXXXXXXXXXXXXXXX...  ",
"  ..XXXXXXXXXXXXXXXXXXXXXXXXXXXXXXXXXXXXXXXXXXXX....XXXXXXXXXXXXXXXXXXXXXXXXXXXXXXXXXXXXXXXXXXXX..  ",
"                                                                                                    ",
"                                                                                                    "
};
