/* XPM */
static char *scannerx1670477037[] = {
/* columns rows colors chars-per-pixel */
"30 30 46 1 ",
"  c #001701",
". c #016D05",
"X c #009907",
"o c #00A607",
"O c #00A707",
"+ c #00A907",
"@ c #00AA07",
"# c #02A00C",
"$ c #00B108",
"% c #00B609",
"& c #01B00C",
"* c #02B40D",
"= c #01B60D",
"- c #00B809",
"; c #00B909",
": c #00C10A",
"> c #01C20D",
", c #01C40D",
"< c #01C50D",
"1 c #01C50E",
"2 c #00C80B",
"3 c #00CB0B",
"4 c #01CB0E",
"5 c #01CF0F",
"6 c #00D00C",
"7 c #00D40C",
"8 c #01D50E",
"9 c #01D40F",
"0 c #01D70F",
"q c #00DB0D",
"w c #01DA0F",
"e c #00DD0D",
"r c #00E00D",
"t c #00E10E",
"y c #00E60E",
"u c #00EA0F",
"i c #01E110",
"p c #00F310",
"a c #00F410",
"s c #00F510",
"d c #00F911",
"f c #00FA10",
"g c #00FB11",
"h c #00FC11",
"j c #00FF11",
"k c #00FF12",
/* pixels */
" X$o&o@@@o@@o$..%o@@@@o@@@o&X ",
"X5gkkgkkkkkkkr88tkgkkkkkkkgg4X",
"$g&pkfkfkkgk8>kk>8fkgkgkkka*f$",
"okp=ggfkkfk8,kagk,wfggggkp*pko",
"@kka=akfkk8,kf--gg,wgfkfa%ajk@",
"@kgka=akjq,kf=fa%fk>wkfp=akfk@",
"@kggka$fq>ka;akkp;gg,wk*akkkko",
"@kkkkjjX4kjaakfjkaakk4Xfkkjfk@",
"okfjkkq4kjjjjfkjjjjjjj3wggggko",
"@kkjk8,jjjjjjjjjjjjjjjj,wgkgk@",
"@kkj8,kjjjjjjjjjjjjjjjjj,wgkk@",
"@kk8,kfajjjjjjjjjjjjjjpak,wgk@",
"ok8,kf%ajjjjjjjjkjjjfka-gk>8k@",
"$r>kf%akjjjkjjkffkjjkfka%gk>e$",
".8kf;fkfjuur36:e3>:wfgkfg-fg8.",
".8ka;ajjjp7yreqy7reefkfka-fk8.",
"$r>kg=pkfjjjjjkjjjkkjjkp%fk>r$",
"okq,kg%pjjjjjjkfjjfjjja;fk,8k@",
"@kk8,kaajjjjjjjjjjjjjjpfk>8kk@",
"@kgk8,kkjjjjjjjjjjjjjjjk,wkfk@",
"okkfj8,kjjjjjjjjgffkjjj>8kjfk@",
"@kjjjjq5jjjjjjjjkkgfjj4wkfjjk@",
"@kkjkka#4jjapkjjfgakg4Xjkjkgko",
"okfjka*fw,ka;pkka-gk>wf*pkkkk@",
"@kfka=ajj8,kf%aa%fg>wfgg&shhk@",
"@kja=ajjfkw,kf--gk,wkgkfs*dhk@",
"okp=akkkjjk8>kgak,8kkfgfka*ako",
"$f$pkgfkjkfk8>kk>8fkgfkjfkp*k$",
"X6gkkkkkkkkkkr88thfkkkkkkkkf4X",
" X&O@@o@@oo@o%..=+@@@@o@@@o$X "
};
