/* XPM */
static char *db646ec776a8498af2f0c6688b5c95bduPlYFAtCMjoraCCa[] = {
/* columns rows colors chars-per-pixel */
"100 100 2 1 ",
"  c black",
". c gray27",
/* pixels */
"                                                                                                    ",
"                                                                                                    ",
"  ................................................................................................  ",
"  ................................................................................................  ",
"  ................................................................................................  ",
"  ................................................................................................  ",
"  ................................................................................................  ",
"  ................................................................................................  ",
"  ................................................................................................  ",
"  ................................................................................................  ",
"  ................................................................................................  ",
"  ................................................................................................  ",
"  ................................................................................................  ",
"  ................................................................................................  ",
"  ................................................................................................  ",
"  ................................................................................................  ",
"  ................................................................................................  ",
"  ................................................................................................  ",
"  ................................................................................................  ",
"  ................................................................................................  ",
"  ................................................................................................  ",
"  ................................................................................................  ",
"  ................................................................................................  ",
"  ................................................................................................  ",
"  ................................................................................................  ",
"  ................................................................................................  ",
"  ................................................................................................  ",
"  ................................................................................................  ",
"  ................................................................................................  ",
"  ................................................................................................  ",
"  ................................................................................................  ",
"  ................................................................................................  ",
"  ................................................................................................  ",
"  ................................................................................................  ",
"  ................................................................................................  ",
"  ................................................................................................  ",
"  ................................................................................................  ",
"  ................................................................................................  ",
"  ................................................................................................  ",
"  ................................................................................................  ",
"  ................................................................................................  ",
"  ................................................................................................  ",
"  ................................................................................................  ",
"  ................................................................................................  ",
"  ................................................................................................  ",
"  ................................................................................................  ",
"  ................................................................................................  ",
"  ................................................................................................  ",
"  ................................................................................................  ",
"  ................................................................................................  ",
"  ................................................................................................  ",
"  ................................................................................................  ",
"  ................................................................................................  ",
"  ................................................................................................  ",
"  ................................................................................................  ",
"  ................................................................................................  ",
"  ................................................................................................  ",
"  ................................................................................................  ",
"  ................................................................................................  ",
"  ................................................................................................  ",
"  ................................................................................................  ",
"  ................................................................................................  ",
"  ................................................................................................  ",
"  ................................................................................................  ",
"  ................................................................................................  ",
"  ................................................................................................  ",
"  ................................................................................................  ",
"  ................................................................................................  ",
"  ................................................................................................  ",
"  ................................................................................................  ",
"  ................................................................................................  ",
"  ................................................................................................  ",
"  ................................................................................................  ",
"  ................................................................................................  ",
"  ................................................................................................  ",
"  ................................................................................................  ",
"  ................................................................................................  ",
"  ................................................................................................  ",
"  ................................................................................................  ",
"  ................................................................................................  ",
"  ................................................................................................  ",
"  ................................................................................................  ",
"  ................................................................................................  ",
"  ................................................................................................  ",
"  ................................................................................................  ",
"  ................................................................................................  ",
"  ................................................................................................  ",
"  ................................................................................................  ",
"  ................................................................................................  ",
"  ................................................................................................  ",
"  ................................................................................................  ",
"  ................................................................................................  ",
"  ................................................................................................  ",
"  ................................................................................................  ",
"  ................................................................................................  ",
"  ................................................................................................  ",
"  ................................................................................................  ",
"  ................................................................................................  ",
"                                                                                                    ",
"                                                                                                    "
};
