/* XPM */
static char *wallx1670477038[] = {
/* columns rows colors chars-per-pixel */
"30 30 6 1 ",
"  c #191919",
". c #2A2A2A",
"X c #2C2C2C",
"o c #444444",
"O c gray27",
"+ c gray29",
/* pixels */
" X...............X..X.......X ",
"X+O++O+OO++O+OO+OO+OO++O+O+O+X",
".+OOooooOOOooOOOooooOOOoooOOO.",
".OoOOOOOOOOOOOOOOOOOOOOOOOOo+.",
".OoOOOOOOOOOOOOOOOOOOOOOOOOoO.",
".+oOOOOOOOOOOOOOOOOOOOOOOOOo+.",
".+OOOOOOOOOOOOOOOOOOOOOOOOOoOX",
".OOOOOOOOOOOOOOOOOOOOOOOOOOoOX",
".+oOOOOOOOOOOOOOOOOOOOOOOOOoOX",
".OoOOOOOOOOOOOOOOOOOOOOOOOOo+.",
".+oOOOOOOOOOOOOOOOOOOOOOOOOOOX",
".OoOOOOOOOOOOOOOOOOOOOOOOOOO+.",
".OOOOOOOOOOOOOOOOOOOOOOOOOOo+.",
".+OOOOOOOOOOOOOOOOOOOOOOOOOoOX",
".+OOOOOOOOOOOOOOOOOOOOOOOOOoO.",
".OoOOOOOOOOOOOOOOOOOOOOOOOOo+.",
".+oOOOOOOOOOOOOOOOOOOOOOOOOoO.",
".OOOOOOOOOOOOOOOOOOOOOOOOOOo+.",
".OOOOOOOOOOOOOOOOOOOOOOOOOOoOX",
".+OOOOOOOOOOOOOOOOOOOOOOOOOOOX",
".+oOOOOOOOOOOOOOOOOOOOOOOOOO+.",
".OoOOOOOOOOOOOOOOOOOOOOOOOOOOX",
".+oOOOOOOOOOOOOOOOOOOOOOOOOOOX",
".OoOOOOOOOOOOOOOOOOOOOOOOOOOOX",
".OOOOOOOOOOOOOOOOOOOOOOOOOOoO.",
".+OOOOOOOOOOOOOOOOOOOOOOOOOo+.",
".+OOOOOOOOOOOOOOOOOOOOOOOOOo+.",
".OooooOOooooooOOooooooOOooooO.",
".+O+O+O+O+O+O+O+O+O+O+O+O++O+.",
" ..X..X.......X.......X.....X "
};
